<svg xmlns="http://www.w3.org/2000/svg" viewBox="0 0 100 100" id="facebook"><path d="M74.21 19H25.79A6.798 6.798 0 0 0 19 25.79v48.42A6.798 6.798 0 0 0 25.79 81h21.87a1 1 0 0 0 1-1V57.53a1 1 0 0 0-1-1h-4.17v-5.21h4.17a1 1 0 0 0 1-1v-1.64c0-5.266 1.53-9.622 4.307-12.264C55.26 34.246 58.633 33 62.22 33c1.416 0 2.734.123 3.93.366V38.9c-.79-.153-1.629-.23-2.51-.23-4.722 0-7.43 3.536-7.43 9.7v1.95a1 1 0 0 0 1 1h6.998l-1.712 5.21H57.29a1 1 0 0 0-1 1V80a1 1 0 0 0 1 1h16.92A6.798 6.798 0 0 0 81 74.21V25.79A6.798 6.798 0 0 0 74.21 19z" fill="#ffffff" class="color000000 svgShape"></path></svg>